<?xml version="1.0" encoding="UTF-8" standalone="no"?>
<!-- Created with Inkscape (http://www.inkscape.org/) -->

<svg
   xmlns:dc="http://purl.org/dc/elements/1.1/"
   xmlns:cc="http://creativecommons.org/ns#"
   xmlns:rdf="http://www.w3.org/1999/02/22-rdf-syntax-ns#"
   xmlns:svg="http://www.w3.org/2000/svg"
   xmlns="http://www.w3.org/2000/svg"
   xmlns:sodipodi="http://sodipodi.sourceforge.net/DTD/sodipodi-0.dtd"
   xmlns:inkscape="http://www.inkscape.org/namespaces/inkscape"
   version="1.1"
   id="svg2"
   xml:space="preserve"
   width="5333.3335"
   height="3124.76"
   viewBox="0 0 5333.3335 3124.76"
   sodipodi:docname="vecteezy_heart-illustration-vector_23072692.inkscape.svg"
   inkscape:version="0.92.5 (2060ec1f9f, 2020-04-08)"
   inkscape:export-filename="./favicon.png"
   inkscape:export-xdpi="30.005999"
   inkscape:export-ydpi="30.005999"><metadata
     id="metadata8"><rdf:RDF><cc:Work
         rdf:about=""><dc:format>image/svg+xml</dc:format><dc:type
           rdf:resource="http://purl.org/dc/dcmitype/StillImage" /><dc:title></dc:title></cc:Work></rdf:RDF></metadata><defs
     id="defs6" /><sodipodi:namedview
     pagecolor="#ffffff"
     bordercolor="#666666"
     borderopacity="1"
     objecttolerance="10"
     gridtolerance="10"
     guidetolerance="10"
     inkscape:pageopacity="0"
     inkscape:pageshadow="2"
     inkscape:window-width="1366"
     inkscape:window-height="665"
     id="namedview4"
     showgrid="false"
     inkscape:zoom="0.059249998"
     inkscape:cx="4132.2478"
     inkscape:cy="2433.5886"
     inkscape:window-x="0"
     inkscape:window-y="24"
     inkscape:window-maximized="1"
     inkscape:current-layer="g10"
     showguides="true"
     inkscape:guide-bbox="true"><sodipodi:guide
       position="-1145.692,1706.6038"
       orientation="0,1"
       id="guide854"
       inkscape:locked="false" /><sodipodi:guide
       position="1407.173,2983.1225"
       orientation="0,1"
       id="guide904"
       inkscape:locked="false" /></sodipodi:namedview><g
     id="g10"
     inkscape:groupmode="layer"
     inkscape:label="track"
     transform="matrix(1.3333333,0,0,-1.3333333,0,3124.76)"
     style="display:inline"><g
       style="display:inline"
       id="g12"
       transform="scale(0.1)"><g
         id="g18"
         transform="scale(5.1942278,1.20969)"><path
           d="M 10547.1,16300 H 0 v -2204.4 h 9976.96 c 79.74,753.5 270.74,1496.4 570.14,2204.4"
           style="fill:#100f0d;fill-opacity:1;fill-rule:nonzero;stroke:none"
           id="path20"
           inkscape:connector-curvature="0" /></g><path
         d="M 9929.6176,1784.7208 V 22373.419 H 4984.4364 V 1784.7208"
         style="fill:#100f0d;fill-opacity:1;fill-rule:nonzero;stroke:none;stroke-width:1.744151"
         id="path24"
         inkscape:connector-curvature="0"
         sodipodi:nodetypes="cccc" /><g
         id="g26"
         transform="scale(3.1965361,1.25509)"><path
           d="M 14175.3,5086.91 H 0 V 2962.19 h 16300 l -2124.7,2124.72"
           style="fill:#100f0d;fill-opacity:1;fill-rule:nonzero;stroke:none"
           id="path28"
           inkscape:connector-curvature="0" /></g><path
         d="M 1523.2235,1784.7203 V 22373.419 H -3421.9578 V 1784.7203"
         style="fill:#100f0d;fill-opacity:1;fill-rule:nonzero;stroke:none;stroke-width:1.744151"
         id="path24-5"
         inkscape:connector-curvature="0"
         sodipodi:nodetypes="cccc" /></g></g><g
     inkscape:groupmode="layer"
     id="layer1"
     inkscape:label="heart"
     transform="matrix(1.3333333,0,0,-1.3333333,0,3124.76)"
     style="display:inline"><g
       id="g14"
       transform="scale(0.245399)"
       style="display:inline;opacity:0.98000004;fill:#ff2e00;fill-opacity:1"><path
         d="m 13292,9550.05 c -769.9,0 -1539.6,-293.77 -2127,-881.12 l -160.8,-160.82 v 0 l -160.8,160.82 c -587.4,587.35 -1357.29,881.12 -2127.02,881.12 -769.72,0 -1539.61,-293.77 -2126.98,-881.12 -1174.7,-1174.69 -1174.7,-3079.44 0,-4254.11 L 8877.22,2126.99 v 0 L 11004.2,0 l 2127,2126.99 v 0 L 15419,4414.82 c 1174.7,1174.67 1174.7,3079.42 0,4254.12 -587.4,587.53 -1357.3,881.11 -2127,881.11 z m 0,-1086.67 c 513.3,0 995.8,-199.95 1358.7,-562.72 362.8,-362.95 562.7,-845.43 562.7,-1358.7 0,-513.27 -199.9,-995.76 -562.7,-1358.72 L 12362.7,2895.45 11004,1536.72 9645.32,2895.45 7357.49,5183.24 c -749.06,749.09 -749.27,1968.16 0,2717.42 362.96,362.95 845.44,562.72 1358.69,562.72 513.29,0 995.77,-199.95 1358.72,-562.9 l 160.8,-160.83 768.3,-768.27 768.3,768.27 160.8,160.83 c 363.1,363.13 845.6,562.9 1358.9,562.9"
         style="fill:#ff2e00;fill-opacity:1;fill-rule:nonzero;stroke:none"
         id="path16"
         inkscape:connector-curvature="0" /></g></g></svg>